# Blender v3.0.1 OBJ File: ''
# www.blender.org
mtllib Pizza Box.mtl
o mesh_id27
v 0.642791 -0.075520 -0.638624
v -0.641346 0.087523 -0.638624
v -0.641346 -0.075520 -0.638624
v 0.642791 0.087523 -0.638624
v -0.641346 -0.075520 0.645512
v 0.642791 0.087523 0.645512
v 0.642791 -0.075520 0.645512
v -0.641346 0.087523 0.645512
v 0.642791 -0.075520 0.645512
v 0.642791 0.087523 -0.638624
v 0.642791 -0.075520 -0.638624
v 0.642791 0.087523 0.645512
v -0.641346 -0.075520 -0.638624
v -0.641346 0.087523 0.645512
v -0.641346 -0.075520 0.645512
v -0.641346 -0.075520 -0.638624
v -0.641346 0.087523 -0.638624
v -0.641346 0.087523 0.645512
v -0.641346 -0.075520 -0.638624
v 0.642791 -0.075520 0.645512
v 0.642791 -0.075520 -0.638624
v -0.641346 -0.075520 -0.638624
v -0.641346 -0.075520 0.645512
v 0.642791 -0.075520 0.645512
v -0.641346 0.087523 0.645512
v 0.642791 0.087523 -0.638624
v 0.642791 0.087523 0.645512
v -0.641346 0.087523 -0.638624
vt 0.254811 0.346384
vt 0.000114 0.000147
vt 0.470014 0.139387
vt 0.492690 0.365164
vt 0.629882 0.751982
vt 0.723618 0.999835
vt 0.341395 0.994097
vt 0.402116 0.616684
vt 0.222461 0.671261
vt 0.254811 0.346384
vt 0.492690 0.365164
vt 0.667834 0.526823
vt 0.863118 0.556320
vt 0.629882 0.751982
vt 0.402116 0.616684
vt 0.000114 0.000147
vt 0.863545 0.021316
vt 0.470014 0.139387
vt 0.000114 0.000147
vt 0.254811 0.346384
vt 0.222461 0.671261
vt 0.863118 0.556320
vt 0.723618 0.999835
vt 0.629882 0.751982
vt 0.863545 0.021316
vt 0.667834 0.526823
vt 0.492690 0.365164
vt 0.470014 0.139387
vn 0.0000 0.0000 -1.0000
vn 0.0000 0.0000 1.0000
vn 1.0000 0.0000 0.0000
vn -1.0000 0.0000 0.0000
vn 0.0000 -1.0000 0.0000
vn 0.0000 1.0000 0.0000
usemtl 139
s off
f 1/1/1 3/2/1 2/3/1
f 1/1/1 2/3/1 4/4/1
f 5/5/2 7/6/2 6/7/2
f 5/5/2 6/7/2 8/8/2
f 9/9/3 11/10/3 10/11/3
f 9/9/3 10/11/3 12/12/3
f 13/13/4 15/14/4 14/15/4
f 16/16/4 18/17/4 17/18/4
f 19/19/5 21/20/5 20/21/5
f 22/22/5 24/23/5 23/24/5
f 25/25/6 27/26/6 26/27/6
f 25/25/6 26/27/6 28/28/6
